<?xml version="1.0" standalone="no"?>
<!DOCTYPE svg PUBLIC "-//W3C//DTD SVG 20010904//EN"
 "http://www.w3.org/TR/2001/REC-SVG-20010904/DTD/svg10.dtd">
<svg version="1.0" xmlns="http://www.w3.org/2000/svg"
 width="413.000000pt" height="413.000000pt" viewBox="0 0 413.000000 413.000000"
 preserveAspectRatio="xMidYMid meet">
<metadata>
Created by potrace 1.14, written by Peter Selinger 2001-2017
</metadata>
<g transform="translate(0.000000,413.000000) scale(0.100000,-0.100000)"
fill="#000000" stroke="none">
<path d="M2123 4094 c4 -8 -13 -13 -54 -17 -33 -3 -71 -12 -84 -21 -13 -9 -37
-17 -54 -18 -17 -1 -31 -5 -31 -8 0 -12 -105 -47 -170 -56 -19 -3 -46 -7 -60
-9 -67 -9 -155 -36 -189 -57 -61 -37 -161 -129 -186 -173 -15 -25 -26 -64 -30
-105 -3 -36 -8 -75 -11 -87 -2 -12 1 -44 7 -70 6 -26 13 -59 15 -73 7 -47 10
-55 17 -67 5 -7 6 -13 2 -13 -3 0 1 -13 10 -30 9 -16 13 -30 10 -30 -3 0 -2
-8 3 -17 5 -10 12 -39 15 -66 3 -26 8 -51 11 -55 2 -4 7 -33 11 -65 5 -46 1
-71 -15 -115 -26 -68 -22 -125 16 -210 23 -53 98 -163 116 -170 4 -2 17 -11
28 -20 20 -16 20 -19 4 -72 -8 -30 -22 -61 -29 -69 -8 -8 -40 -15 -77 -17 -35
-2 -86 -11 -115 -20 -37 -12 -60 -14 -80 -7 -35 12 -64 10 -133 -10 -30 -9
-85 -18 -122 -20 -127 -9 -239 -58 -301 -134 -17 -21 -57 -64 -89 -95 -80 -80
-100 -123 -104 -227 -3 -48 -8 -99 -11 -116 -4 -16 -8 -418 -10 -892 l-4 -863
1631 0 1630 0 -2 608 -3 607 -28 150 c-39 215 -44 236 -92 376 -86 252 -164
438 -207 494 -63 83 -191 138 -344 150 -49 3 -111 12 -139 20 -27 7 -85 19
-128 26 l-79 13 7 31 c30 134 26 308 -9 424 -31 102 -32 130 -5 182 l20 40
-20 42 c-11 23 -25 71 -31 107 -6 36 -17 85 -25 110 -8 25 -21 67 -29 94 -16
49 -12 96 6 96 6 0 16 8 23 17 11 15 15 16 31 3 17 -14 18 -14 5 3 -12 15 -11
17 2 17 9 0 19 5 23 12 4 7 3 8 -4 4 -7 -4 -16 -5 -22 -1 -11 7 -2 35 12 35 6
0 5 -8 -3 -17 -11 -15 -11 -16 0 -6 7 6 20 9 27 6 8 -3 14 0 14 7 0 6 -4 8
-10 5 -9 -6 -15 27 -12 68 1 11 -2 15 -9 11 -7 -4 -7 1 1 16 6 12 9 31 7 42
-3 11 0 21 9 25 8 3 11 9 8 14 -3 5 -9 7 -14 4 -5 -3 -12 0 -16 6 -4 8 -3 9 4
5 7 -4 12 -2 12 3 0 6 -5 11 -11 11 -5 0 -8 4 -4 9 3 5 -2 16 -10 24 -8 9 -15
20 -15 25 0 5 -17 22 -37 38 -21 15 -40 31 -43 35 -10 13 -68 38 -74 32 -3 -4
-6 -2 -6 4 0 5 -23 16 -51 23 -27 8 -53 18 -55 22 -3 4 -14 3 -25 -2 -13 -8
-19 -7 -19 0 0 6 -5 8 -11 4 -6 -3 -15 0 -20 7 -6 10 -9 10 -9 2 0 -9 -7 -10
-25 -3 -16 6 -25 6 -25 -1 0 -6 -7 -6 -20 1 -15 8 -20 8 -20 -1 0 -8 -4 -9
-13 0 -8 6 -17 8 -20 4 -4 -3 -14 0 -24 8 -9 8 -14 9 -10 3z m517 -421 c-14
-10 -26 -17 -27 -15 -4 3 -3 12 0 10 9 -7 36 26 30 36 -3 6 0 6 8 -2 11 -10 9
-15 -11 -29z m-45 -23 c3 -5 1 -10 -4 -10 -6 0 -11 5 -11 10 0 6 2 10 4 10 3
0 8 -4 11 -10z m29 -26 c3 -8 2 -13 -2 -10 -5 3 -15 -4 -22 -15 -17 -23 -27
-24 -27 -4 0 8 4 12 8 9 5 -3 14 4 21 16 15 24 14 24 22 4z"/>
<path d="M2680 3770 c-6 -11 -7 -20 -2 -20 4 0 8 -9 9 -20 1 -11 -2 -20 -7
-20 -4 0 -6 -9 -3 -21 5 -19 7 -18 19 11 10 22 11 37 4 50 -13 25 -13 33 2 24
7 -4 8 -3 4 4 -10 16 -14 15 -26 -8z"/>
</g>
</svg>
